<svg width="16" height="16" viewBox="0 0 16 16" fill="none" xmlns="http://www.w3.org/2000/svg">
<path d="M15.1739 7.51426L7.58413 0.926981C7.52587 0.876758 7.45154 0.848633 7.37319 0.848633H5.59529C5.44663 0.848633 5.37833 1.03345 5.49083 1.12988L12.5261 7.23703H0.769845C0.681452 7.23703 0.609131 7.30935 0.609131 7.39774V8.6031C0.609131 8.69149 0.681452 8.76381 0.769845 8.76381H12.5241L5.48882 14.871C5.37632 14.9694 5.44462 15.1522 5.59328 15.1522H7.43145C7.46962 15.1522 7.50779 15.1381 7.53592 15.112L15.1739 8.48658C15.2434 8.4261 15.2992 8.35141 15.3374 8.26754C15.3756 8.18367 15.3954 8.09258 15.3954 8.00042C15.3954 7.90826 15.3756 7.81717 15.3374 7.7333C15.2992 7.64943 15.2434 7.57473 15.1739 7.51426V7.51426Z" fill="#9254DE"/>
</svg>
